<mxfile host="Electron" modified="2024-01-30T07:22:37.964Z" agent="Mozilla/5.0 (Windows NT 10.0; Win64; x64) AppleWebKit/537.36 (KHTML, like Gecko) draw.io/22.1.11 Chrome/114.0.5735.289 Electron/25.9.8 Safari/537.36" etag="cfKq-OZh5au_GNFhYT2r" version="22.1.11" type="device">
  <diagram name="Page-1" id="M-ZQfgINscYGGPBVTpgo">
    <mxGraphModel dx="1262" dy="592" grid="1" gridSize="10" guides="1" tooltips="1" connect="1" arrows="1" fold="1" page="1" pageScale="1" pageWidth="850" pageHeight="1100" math="0" shadow="0">
      <root>
        <mxCell id="0" />
        <mxCell id="1" parent="0" />
        <mxCell id="ExK38CI0r4O9monESGi5-3" style="edgeStyle=orthogonalEdgeStyle;rounded=0;orthogonalLoop=1;jettySize=auto;html=1;" edge="1" parent="1" source="ExK38CI0r4O9monESGi5-1" target="ExK38CI0r4O9monESGi5-2">
          <mxGeometry relative="1" as="geometry" />
        </mxCell>
        <mxCell id="ExK38CI0r4O9monESGi5-1" value="" style="image;aspect=fixed;perimeter=ellipsePerimeter;html=1;align=center;shadow=0;dashed=0;spacingTop=3;image=img/lib/active_directory/internet_cloud.svg;" vertex="1" parent="1">
          <mxGeometry x="220" y="254.25" width="50" height="31.5" as="geometry" />
        </mxCell>
        <mxCell id="ExK38CI0r4O9monESGi5-18" style="edgeStyle=orthogonalEdgeStyle;rounded=0;orthogonalLoop=1;jettySize=auto;html=1;" edge="1" parent="1" source="ExK38CI0r4O9monESGi5-2" target="ExK38CI0r4O9monESGi5-10">
          <mxGeometry relative="1" as="geometry">
            <Array as="points">
              <mxPoint x="394" y="160" />
            </Array>
          </mxGeometry>
        </mxCell>
        <mxCell id="ExK38CI0r4O9monESGi5-2" value="" style="image;aspect=fixed;html=1;points=[];align=center;fontSize=12;image=img/lib/azure2/networking/Front_Doors.svg;" vertex="1" parent="1">
          <mxGeometry x="360" y="240" width="68" height="60" as="geometry" />
        </mxCell>
        <mxCell id="ExK38CI0r4O9monESGi5-4" value="Internet" style="text;html=1;align=center;verticalAlign=middle;resizable=0;points=[];autosize=1;strokeColor=none;fillColor=none;" vertex="1" parent="1">
          <mxGeometry x="215" y="300" width="60" height="30" as="geometry" />
        </mxCell>
        <mxCell id="ExK38CI0r4O9monESGi5-8" value="" style="image;aspect=fixed;html=1;points=[];align=center;fontSize=12;image=img/lib/azure2/databases/SQL_Database.svg;" vertex="1" parent="1">
          <mxGeometry x="705" y="130" width="48" height="64" as="geometry" />
        </mxCell>
        <mxCell id="ExK38CI0r4O9monESGi5-9" value="SQL Server / database" style="text;html=1;align=center;verticalAlign=middle;resizable=0;points=[];autosize=1;strokeColor=none;fillColor=none;" vertex="1" parent="1">
          <mxGeometry x="650" y="208" width="150" height="30" as="geometry" />
        </mxCell>
        <mxCell id="ExK38CI0r4O9monESGi5-12" style="edgeStyle=orthogonalEdgeStyle;rounded=0;orthogonalLoop=1;jettySize=auto;html=1;" edge="1" parent="1" source="ExK38CI0r4O9monESGi5-10" target="ExK38CI0r4O9monESGi5-8">
          <mxGeometry relative="1" as="geometry" />
        </mxCell>
        <mxCell id="ExK38CI0r4O9monESGi5-10" value="" style="image;aspect=fixed;html=1;points=[];align=center;fontSize=12;image=img/lib/azure2/app_services/App_Services.svg;" vertex="1" parent="1">
          <mxGeometry x="500" y="130" width="64" height="64" as="geometry" />
        </mxCell>
        <mxCell id="ExK38CI0r4O9monESGi5-11" value="WebApp" style="text;html=1;align=center;verticalAlign=middle;resizable=0;points=[];autosize=1;strokeColor=none;fillColor=none;" vertex="1" parent="1">
          <mxGeometry x="500" y="220" width="70" height="30" as="geometry" />
        </mxCell>
        <mxCell id="ExK38CI0r4O9monESGi5-19" style="edgeStyle=orthogonalEdgeStyle;rounded=0;orthogonalLoop=1;jettySize=auto;html=1;exitX=0.6;exitY=1.023;exitDx=0;exitDy=0;exitPerimeter=0;entryX=0.012;entryY=0.584;entryDx=0;entryDy=0;entryPerimeter=0;" edge="1" parent="1" target="ExK38CI0r4O9monESGi5-22">
          <mxGeometry relative="1" as="geometry">
            <mxPoint x="384.79999999999995" y="300" as="sourcePoint" />
            <Array as="points">
              <mxPoint x="394" y="300" />
              <mxPoint x="394" y="457" />
            </Array>
            <mxPoint x="480" y="440" as="targetPoint" />
          </mxGeometry>
        </mxCell>
        <mxCell id="ExK38CI0r4O9monESGi5-20" value="" style="image;aspect=fixed;html=1;points=[];align=center;fontSize=12;image=img/lib/azure2/databases/SQL_Database.svg;" vertex="1" parent="1">
          <mxGeometry x="717" y="410" width="48" height="64" as="geometry" />
        </mxCell>
        <mxCell id="ExK38CI0r4O9monESGi5-21" value="SQL Server / Database" style="text;html=1;align=center;verticalAlign=middle;resizable=0;points=[];autosize=1;strokeColor=none;fillColor=none;" vertex="1" parent="1">
          <mxGeometry x="666" y="498" width="150" height="30" as="geometry" />
        </mxCell>
        <mxCell id="ExK38CI0r4O9monESGi5-22" value="" style="image;aspect=fixed;html=1;points=[];align=center;fontSize=12;image=img/lib/azure2/app_services/App_Services.svg;" vertex="1" parent="1">
          <mxGeometry x="522" y="420" width="64" height="64" as="geometry" />
        </mxCell>
        <mxCell id="ExK38CI0r4O9monESGi5-23" value="WebApp" style="text;html=1;align=center;verticalAlign=middle;resizable=0;points=[];autosize=1;strokeColor=none;fillColor=none;" vertex="1" parent="1">
          <mxGeometry x="516" y="510" width="70" height="30" as="geometry" />
        </mxCell>
        <mxCell id="ExK38CI0r4O9monESGi5-24" style="edgeStyle=orthogonalEdgeStyle;rounded=0;orthogonalLoop=1;jettySize=auto;html=1;entryX=0.046;entryY=0.634;entryDx=0;entryDy=0;entryPerimeter=0;" edge="1" parent="1" source="ExK38CI0r4O9monESGi5-22" target="ExK38CI0r4O9monESGi5-20">
          <mxGeometry relative="1" as="geometry" />
        </mxCell>
        <mxCell id="ExK38CI0r4O9monESGi5-25" value="Auto FailOver Group&amp;nbsp;&lt;br&gt;/&lt;br&gt;Geo Replication" style="text;html=1;align=center;verticalAlign=middle;resizable=0;points=[];autosize=1;strokeColor=none;fillColor=none;" vertex="1" parent="1">
          <mxGeometry x="830" y="270" width="140" height="60" as="geometry" />
        </mxCell>
        <mxCell id="ExK38CI0r4O9monESGi5-26" style="edgeStyle=orthogonalEdgeStyle;rounded=0;orthogonalLoop=1;jettySize=auto;html=1;entryX=0.357;entryY=0;entryDx=0;entryDy=0;entryPerimeter=0;" edge="1" parent="1" source="ExK38CI0r4O9monESGi5-8" target="ExK38CI0r4O9monESGi5-25">
          <mxGeometry relative="1" as="geometry" />
        </mxCell>
        <mxCell id="ExK38CI0r4O9monESGi5-27" style="edgeStyle=orthogonalEdgeStyle;rounded=0;orthogonalLoop=1;jettySize=auto;html=1;entryX=0.414;entryY=1.003;entryDx=0;entryDy=0;entryPerimeter=0;" edge="1" parent="1" source="ExK38CI0r4O9monESGi5-20" target="ExK38CI0r4O9monESGi5-25">
          <mxGeometry relative="1" as="geometry" />
        </mxCell>
        <mxCell id="ExK38CI0r4O9monESGi5-28" value="" style="rounded=1;arcSize=10;dashed=1;fillColor=none;gradientColor=none;dashPattern=1 1;strokeWidth=2;" vertex="1" parent="1">
          <mxGeometry x="450.5" y="70.5" width="369.5" height="199.5" as="geometry" />
        </mxCell>
        <mxCell id="ExK38CI0r4O9monESGi5-29" value="" style="rounded=1;arcSize=10;dashed=1;fillColor=none;gradientColor=none;dashPattern=1 1;strokeWidth=2;" vertex="1" parent="1">
          <mxGeometry x="460.5" y="340.5" width="369.5" height="199.5" as="geometry" />
        </mxCell>
        <mxCell id="ExK38CI0r4O9monESGi5-30" value="Front&lt;br&gt;Door" style="text;html=1;align=center;verticalAlign=middle;resizable=0;points=[];autosize=1;strokeColor=none;fillColor=none;" vertex="1" parent="1">
          <mxGeometry x="410.5" y="285.75" width="50" height="40" as="geometry" />
        </mxCell>
        <mxCell id="ExK38CI0r4O9monESGi5-31" value="East US" style="text;html=1;align=center;verticalAlign=middle;resizable=0;points=[];autosize=1;strokeColor=none;fillColor=none;" vertex="1" parent="1">
          <mxGeometry x="425" y="28" width="70" height="30" as="geometry" />
        </mxCell>
        <mxCell id="ExK38CI0r4O9monESGi5-32" value="West US" style="text;html=1;align=center;verticalAlign=middle;resizable=0;points=[];autosize=1;strokeColor=none;fillColor=none;" vertex="1" parent="1">
          <mxGeometry x="425" y="550" width="70" height="30" as="geometry" />
        </mxCell>
      </root>
    </mxGraphModel>
  </diagram>
</mxfile>
